<svg width="1440" height="496" viewBox="0 0 1440 496" fill="none" xmlns="http://www.w3.org/2000/svg">
<path d="M-103.531 249.862C-91.1083 238.829 -74.2913 233.379 -59.446 226.48C7.96846 195.152 77.3211 168.368 146.259 140.616C224.212 109.236 303.913 70.5017 387.027 54.4663C417.874 48.515 450.901 46.7918 481.661 54.2135C505.756 60.0271 499.154 72.8674 485.334 89.1269C430.135 154.073 365.914 210.618 314.058 278.388C276.639 327.291 237.527 387.327 229.44 450.067C220.259 521.297 348.28 458.484 370.891 447.728C446.329 411.844 519.792 372.271 596.652 339.339C687.212 300.537 780.286 267.528 872.098 231.846C964.034 196.116 1055.51 158.925 1148.82 126.892C1270.2 85.2255 1392.82 42.4514 1517.8 12.8067" stroke="#2D50AC" stroke-opacity="0.2" stroke-width="24" stroke-linecap="round"/>
</svg>
